PathFileType	4	(X/Y/Z)	T1_P2_NoVision_Movement_1_0-729.trc
DataRate	CameraRate	NumFrames	NumMarkers	Units	OrigDataRate	OrigDataStartFrame	OrigNumFrames
60	60	7	27	m	60	273	729
Frame#	Time	RHip			RKnee			RAnkle			RBigToe			RSmallToe			RHeel			LHip			LKnee			LAnkle			LBigToe			LSmallToe			LHeel			Neck			Head			Nose			RShoulder			RElbow			RWrist			RThumb			RIndex			RPinky			LShoulder			LElbow			LWrist			LThumb			LIndex			LPinky		
		X1	Y1	Z1	X2	Y2	Z2	X3	Y3	Z3	X4	Y4	Z4	X5	Y5	Z5	X6	Y6	Z6	X7	Y7	Z7	X8	Y8	Z8	X9	Y9	Z9	X10	Y10	Z10	X11	Y11	Z11	X12	Y12	Z12	X13	Y13	Z13	X14	Y14	Z14	X15	Y15	Z15	X16	Y16	Z16	X17	Y17	Z17	X18	Y18	Z18	X19	Y19	Z19	X20	Y20	Z20	X21	Y21	Z21	X22	Y22	Z22	X23	Y23	Z23	X24	Y24	Z24	X25	Y25	Z25	X26	Y26	Z26	X27	Y27	Z27
274	4.566666666666666	456.7907263531295	3645.4474412942345	547.2712130053343	848.3783100772013	3680.8474846747263	547.9132309714191	1228.8709276733498	3700.4918658916595	612.7044604931124	1327.2826658732652	3628.2334043773076	605.9840277611869	1291.8730190168071	3629.447140700617	543.7450313128446	1262.4690278022827	3686.6516285756657	627.7098244264621	453.56292917913544	3507.965257535832	734.9028365369362	859.7957835898089	3541.0139844010173	745.193711468951	1224.427199666101	3604.703774364616	749.7459444013429	1332.831376253315	3571.8577670910145	702.9141783526861	1280.0051559576386	3475.3746242901834	721.5146376486448	1261.1526890214939	3610.2433565547467	726.5564660687687	-107.48900209970294	3538.8632588343266	635.8970257947775	-357.6107709558532	3466.5148697652194	592.8673161088184	-208.0439227164324	3433.7857534847267	565.239463130485	-30.612497567508782	3713.002272681757	544.9143313373552	199.1604978047075	3732.131545846878	459.5697853491364	430.0462287031148	3666.165557526003	407.30397689797985	546.9478963925851	3559.520043502765	407.1902560820439	575.2152631924931	3564.6202718622553	396.4116973887456	567.3595729747816	3644.6495563266085	387.4442947805133	-32.614591344699306	3538.2154146335115	820.0705833448088	226.05396071291688	3472.799176604182	857.1521568637077	478.5443055037635	3460.3089944785393	863.4299793625785	563.111845149126	3456.2723797876715	825.7673629977603	598.6247703571855	3444.6744995395725	832.6573543386904	610.5828635315208	3484.547188205833	908.3330280946811
275	4.583333333333333	456.5850447207293	3645.0974098039414	546.9806880615903	854.3928753123	3685.3201337206815	549.1302866351347	1222.5981795894645	3698.1282767813864	610.7626623840204	1321.9548567829036	3626.8534819033157	604.2973690199613	1283.8259832471479	3613.3555668070762	530.8418199178288	1269.445432475133	3707.327903445239	632.7892551738554	453.54744025219424	3507.808236135841	734.8268360301873	854.5840041344583	3526.091192810388	731.71805216974	1217.3369381781638	3589.336897590194	735.8651588086058	1324.8948003506137	3555.873864132168	688.9124673066779	1279.8206230949418	3475.0436488204946	721.152049779719	1261.1622617714174	3610.0401931086894	726.4156644881535	-107.38577252279953	3538.790955970448	635.7957695051211	-357.6253499921601	3466.6746318052737	592.8680703908285	-208.0358028854655	3433.726405137815	565.0580101030863	-30.628219770563053	3712.9395036081432	544.8267578574819	199.10882294953564	3731.9396734741667	459.4343789152381	430.0154067213601	3666.103496045983	407.5188179505319	550.384710126463	3553.0364590839977	409.57794312883027	571.8484270198403	3546.6348670602706	392.9675397245561	571.2043509002624	3660.2286874375113	399.2872368324538	-23.822566996660967	3535.5062218201615	818.3734383977951	230.68793780386935	3474.345177244003	858.1737298214792	478.5651522652381	3460.2021081839252	863.3642147498008	562.856540490012	3457.8183648551617	821.6537046910044	598.6009415029112	3445.0887106881114	832.8615859794245	610.6408340335922	3484.659001191163	908.2049197068661
276	4.6	454.04060709951256	3624.8084222651473	542.0775466956067	866.4532658345438	3693.0388162989993	552.6797474410663	1222.6595498768258	3698.3877698333094	610.8699126050058	1321.8377299090027	3626.688101834621	604.29932681561	1283.8434659203	3613.228538763612	530.8427849454636	1260.0292901110959	3694.443244037752	626.2442220277113	453.8112003724961	3507.837362904769	734.8848295938595	855.310202307773	3526.9782736613583	732.0237914809602	1225.6348684745585	3607.4325038088423	749.221428651476	1325.7305204587772	3560.076253264089	685.5112867350417	1279.8474441607043	3475.4182191751424	721.3110774795798	1265.2244551145902	3619.599237334956	730.2228332268406	-107.41887513522538	3558.5718941740774	641.4622336167256	-357.5599959331329	3466.733958248721	592.9120705883374	-212.30863795555948	3429.539660938047	562.9287172667562	-30.093117108945307	3720.4995013039797	543.1925596711276	198.99654557608238	3731.859977948879	459.4902632149287	429.9518465659396	3666.092528691428	407.59733926409325	545.189208815172	3545.9787377754897	417.2994470607593	561.4153059411382	3539.80654135469	390.83450165722644	571.2989874219397	3657.2653401067373	398.8576731859559	-28.06439048930342	3539.3634109191157	820.4869259370937	230.5862298106999	3474.13784737605	858.0064932272034	478.51783745908415	3460.1661150942523	863.3470511530261	562.8549929128701	3457.7928550797674	821.6846661454261	594.3127186932169	3443.588775547199	831.7033308523172	610.4145236972897	3481.9732634458046	912.3105253531223
277	4.616666666666666	459.1329100087722	3626.63832512684	543.295288903353	870.9665922555024	3688.8062418579266	562.3681567038092	1235.11345921213	3704.6763185851523	613.7228320363939	1325.2305789968075	3633.8125863644013	609.0502997926346	1303.9453700487927	3635.88881935874	546.6954087184512	1260.1923269878607	3691.8493047512584	630.3746937317713	458.82684947168707	3509.447139311066	735.9786478003183	865.8118461553598	3543.452402876726	746.8031241765545	1224.0553913404535	3593.164911158992	736.6977128337179	1324.9495642033605	3556.204223244182	689.0311891786683	1279.7839131310743	3475.0717236109067	721.1627869690187	1267.9448475566148	3614.2300866577903	727.4097200758517	-107.46465797663352	3558.533204577102	641.3942502086403	-357.5660332411369	3466.778667575531	592.8627670951308	-212.54545631337666	3429.714761055976	562.943450238326	-25.821190672481777	3716.628108129572	541.1886611666763	199.0972790710095	3731.9032597231644	459.46766965007095	430.05376216405693	3666.182255812533	407.7048552326859	550.7883056383309	3568.6212594102726	433.0592077437123	565.9540741000485	3540.8017301072596	392.0180647482221	568.6981709473075	3638.1376662065204	395.4104205606487	-23.897153977605598	3535.427893945524	818.1186414554751	230.50419288743024	3473.9723392866963	857.9580002354159	475.2119086444544	3447.903314266467	845.1202449498439	562.7332447841868	3457.913197652341	821.7709147084585	594.3003756075916	3444.174294003629	831.9520102166931	610.5250153358644	3484.571811776541	907.9916928403456
278	4.633333333333334	463.27709799723624	3621.732097516431	540.7649333066141	876.2445380391952	3685.7138714867133	559.2522954555598	1235.3129375800704	3704.331629831054	613.5797520903208	1319.7322653867102	3604.8480397362623	605.1984403404133	1283.2697165550078	3597.105242643517	526.7271139819102	1262.8603630563416	3686.8695203017046	627.7715534266987	458.86674389419557	3509.360888848966	735.9806837493911	871.145417694244	3545.3006479748683	748.3146760089654	1231.1761128822932	3608.6138005765806	750.5527963325995	1331.0048713003664	3559.971225793376	689.9231887433832	1280.0808369908052	3475.364492052777	721.4571791106764	1273.5017783555654	3615.948777093081	728.9939633991911	-107.48258867092231	3558.573440177869	641.4017227633938	-357.5875715377754	3466.8808182195694	592.9178641849436	-212.53897451143226	3429.687139570629	562.8745836082024	-25.83881389123958	3716.8935732256336	541.2157383511595	199.10910299340344	3732.1982358461632	459.60651111002915	433.2028310919318	3682.465523482453	420.184668228143	542.2876339317258	3568.5805306604157	439.1279484846792	561.2606787803819	3538.880422026455	391.0940691339801	568.7552747943097	3636.117326054673	395.1534903806758	-32.70266643511862	3540.7255196299943	815.9371256557105	225.97141312819952	3472.5250456838326	857.0234823753921	475.1743414952687	3448.098948908172	845.1762381611538	562.8275050327583	3458.002594125011	821.8243685652251	598.6440995108437	3445.3218785744534	833.0404520295133	610.4819166055055	3484.4872752689234	907.9769752951144
279	4.65	466.074825642756	3642.475636573313	545.9560146849515	869.9222129305451	3680.6727331376806	557.7713141322826	1235.1240887944564	3704.739177245245	613.7344116231131	1327.523970554192	3626.328594202574	610.8397398100276	1290.41070808258	3617.321664520751	531.9836206453571	1267.2563395437044	3712.646806543153	635.599254111487	458.7842061297224	3509.6990408854836	736.0862004913743	865.6412696661787	3543.356233129845	746.8580885703601	1223.7854449547388	3593.0200245268156	736.6118063496488	1317.4756254257993	3536.207159278635	683.5315594557968	1279.8009619587074	3474.997780908534	721.251619855723	1270.7901561109518	3620.989320856732	731.6286997313462	-107.44008874719833	3558.8754210024995	641.519668154464	-357.49140818884104	3467.0733241509665	592.9851314623257	-211.83165138577863	3432.2132470524034	564.148702906677	-30.558148257315693	3715.7107302916515	540.853873055576	199.14680707630922	3732.3504859778877	459.7207949489136	430.44562682608534	3662.550701817382	416.4215255393612	541.7891247312099	3567.9614678691273	438.9390815113511	560.5213604748284	3538.257091799778	391.15280365929095	568.3651295494612	3635.2589778031734	395.028921676691	-32.68255863996825	3540.9932557163584	816.1479308650006	229.90905369103535	3468.1414990402077	854.3089167765955	475.15429852124106	3448.0559878816766	845.1596046500185	562.7636642612625	3457.7361540040197	821.628059477151	598.7193290545396	3444.8888082480066	832.758716449225	610.5618172413631	3484.618587422256	908.0765841094071
280	4.666666666666667	466.96722594015165	3649.413055930035	549.8240691272986	886.5461479334764	3709.091060363711	566.6134643720286	1241.2810038822222	3706.5660363533093	615.3346318811809	1319.644510054257	3604.8478778883577	605.2244411008136	1295.5903403553302	3619.061614094115	533.6322288747498	1269.6831489835306	3707.257187290134	632.8186268140747	458.9649042375626	3509.8025520592996	736.1847294110314	870.986063399653	3545.1031061079098	748.3106254228812	1223.8490393414156	3592.966238225887	736.6777752941605	1317.480627211708	3536.177225022737	683.4655733588451	1279.807789886164	3474.9511998618595	721.157209369567	1270.8109398425638	3620.861642411943	731.6090411576797	-107.47452915855294	3558.9700202713434	641.6169126403103	-357.482290920431	3466.8722585980736	592.8012525551514	-212.47475661071735	3429.853063747046	562.9764051776099	-25.815191063327095	3717.1017712764497	541.4147883732871	199.12283405695266	3732.292201872061	459.762035070423	426.866102839652	3667.11392918274	418.70511827853505	537.7362658176816	3586.860537094763	453.6604946867252	559.3306622680493	3551.548410485151	402.20791349707395	565.0753236017381	3616.048182414256	391.43150664185794	-32.69817534123587	3541.0556721844887	816.1657246640586	225.97615872640822	3472.621434334605	857.0655272527961	475.1687584080698	3448.17317988325	845.18295836406	562.7717075542442	3458.0019455157676	821.63525313155	594.3398387730499	3444.0687458681314	831.8233169010692	610.467066876274	3484.8304988636055	908.2891526130593
